<mxfile host="app.diagrams.net" modified="2020-08-08T07:32:02.410Z" agent="5.0 (Windows NT 10.0; Win64; x64) AppleWebKit/537.36 (KHTML, like Gecko) Chrome/84.0.4147.105 Safari/537.36" etag="FOEKJYWzlDM4hZKTB775" version="13.6.1" type="github">
  <diagram id="5UqSUhvK9M5Ugmqjl198" name="Erp">
    <mxGraphModel dx="1730" dy="885" grid="1" gridSize="10" guides="1" tooltips="1" connect="1" arrows="1" fold="1" page="1" pageScale="1" pageWidth="2339" pageHeight="3300" math="0" shadow="0">
      <root>
        <mxCell id="0" />
        <mxCell id="1" parent="0" />
        <mxCell id="IEBwx1ruP9Jk8ynMICCt-90" value="" style="edgeStyle=entityRelationEdgeStyle;fontSize=12;html=1;endArrow=ERzeroToMany;endFill=1;entryX=0;entryY=0.5;entryDx=0;entryDy=0;exitX=1;exitY=0.5;exitDx=0;exitDy=0;" edge="1" parent="1" source="IEBwx1ruP9Jk8ynMICCt-27" target="IEBwx1ruP9Jk8ynMICCt-73">
          <mxGeometry width="100" height="100" relative="1" as="geometry">
            <mxPoint x="370" y="290" as="sourcePoint" />
            <mxPoint x="470" y="190" as="targetPoint" />
          </mxGeometry>
        </mxCell>
        <mxCell id="IEBwx1ruP9Jk8ynMICCt-91" value="" style="edgeStyle=entityRelationEdgeStyle;fontSize=12;html=1;endArrow=ERzeroToMany;endFill=1;entryX=0;entryY=0.5;entryDx=0;entryDy=0;exitX=1;exitY=0.5;exitDx=0;exitDy=0;" edge="1" parent="1" source="IEBwx1ruP9Jk8ynMICCt-2" target="IEBwx1ruP9Jk8ynMICCt-55">
          <mxGeometry width="100" height="100" relative="1" as="geometry">
            <mxPoint x="710" y="120" as="sourcePoint" />
            <mxPoint x="780" y="120" as="targetPoint" />
          </mxGeometry>
        </mxCell>
        <mxCell id="IEBwx1ruP9Jk8ynMICCt-173" value="" style="edgeStyle=entityRelationEdgeStyle;fontSize=12;html=1;endArrow=ERzeroToMany;endFill=1;exitX=1;exitY=0.5;exitDx=0;exitDy=0;entryX=0;entryY=0.5;entryDx=0;entryDy=0;" edge="1" parent="1" source="IEBwx1ruP9Jk8ynMICCt-240" target="IEBwx1ruP9Jk8ynMICCt-149">
          <mxGeometry width="100" height="100" relative="1" as="geometry">
            <mxPoint x="510" y="620" as="sourcePoint" />
            <mxPoint x="950" y="640" as="targetPoint" />
          </mxGeometry>
        </mxCell>
        <mxCell id="IEBwx1ruP9Jk8ynMICCt-199" value="" style="edgeStyle=entityRelationEdgeStyle;fontSize=12;html=1;endArrow=ERzeroToMany;endFill=1;exitX=1;exitY=0.5;exitDx=0;exitDy=0;entryX=0;entryY=0.5;entryDx=0;entryDy=0;" edge="1" parent="1" source="IEBwx1ruP9Jk8ynMICCt-152" target="IEBwx1ruP9Jk8ynMICCt-99">
          <mxGeometry width="100" height="100" relative="1" as="geometry">
            <mxPoint x="1039.5" y="1180" as="sourcePoint" />
            <mxPoint x="1220" y="1075" as="targetPoint" />
          </mxGeometry>
        </mxCell>
        <mxCell id="IEBwx1ruP9Jk8ynMICCt-26" value="department" style="shape=table;startSize=30;container=1;collapsible=1;childLayout=tableLayout;fixedRows=1;rowLines=0;fontStyle=1;align=center;resizeLast=1;" vertex="1" parent="1">
          <mxGeometry x="270" y="80" width="180" height="100" as="geometry" />
        </mxCell>
        <mxCell id="IEBwx1ruP9Jk8ynMICCt-27" value="" style="shape=partialRectangle;collapsible=0;dropTarget=0;pointerEvents=0;fillColor=none;top=0;left=0;bottom=0;right=0;points=[[0,0.5],[1,0.5]];portConstraint=eastwest;" vertex="1" parent="IEBwx1ruP9Jk8ynMICCt-26">
          <mxGeometry y="30" width="180" height="30" as="geometry" />
        </mxCell>
        <mxCell id="IEBwx1ruP9Jk8ynMICCt-28" value="PK" style="shape=partialRectangle;connectable=0;fillColor=none;top=0;left=0;bottom=0;right=0;fontStyle=1;overflow=hidden;" vertex="1" parent="IEBwx1ruP9Jk8ynMICCt-27">
          <mxGeometry width="60" height="30" as="geometry" />
        </mxCell>
        <mxCell id="IEBwx1ruP9Jk8ynMICCt-29" value="department" style="shape=partialRectangle;connectable=0;fillColor=none;top=0;left=0;bottom=0;right=0;align=left;spacingLeft=6;fontStyle=5;overflow=hidden;" vertex="1" parent="IEBwx1ruP9Jk8ynMICCt-27">
          <mxGeometry x="60" width="120" height="30" as="geometry" />
        </mxCell>
        <mxCell id="IEBwx1ruP9Jk8ynMICCt-33" value="" style="shape=partialRectangle;collapsible=0;dropTarget=0;pointerEvents=0;fillColor=none;top=0;left=0;bottom=0;right=0;points=[[0,0.5],[1,0.5]];portConstraint=eastwest;" vertex="1" parent="IEBwx1ruP9Jk8ynMICCt-26">
          <mxGeometry y="60" width="180" height="30" as="geometry" />
        </mxCell>
        <mxCell id="IEBwx1ruP9Jk8ynMICCt-34" value="" style="shape=partialRectangle;connectable=0;fillColor=none;top=0;left=0;bottom=0;right=0;editable=1;overflow=hidden;" vertex="1" parent="IEBwx1ruP9Jk8ynMICCt-33">
          <mxGeometry width="60" height="30" as="geometry" />
        </mxCell>
        <mxCell id="IEBwx1ruP9Jk8ynMICCt-35" value="name" style="shape=partialRectangle;connectable=0;fillColor=none;top=0;left=0;bottom=0;right=0;align=left;spacingLeft=6;overflow=hidden;" vertex="1" parent="IEBwx1ruP9Jk8ynMICCt-33">
          <mxGeometry x="60" width="120" height="30" as="geometry" />
        </mxCell>
        <mxCell id="IEBwx1ruP9Jk8ynMICCt-1" value="employee" style="shape=table;startSize=30;container=1;collapsible=1;childLayout=tableLayout;fixedRows=1;rowLines=0;fontStyle=1;align=center;resizeLast=1;" vertex="1" parent="1">
          <mxGeometry x="520" y="50" width="180" height="250" as="geometry" />
        </mxCell>
        <mxCell id="IEBwx1ruP9Jk8ynMICCt-2" value="" style="shape=partialRectangle;collapsible=0;dropTarget=0;pointerEvents=0;fillColor=none;top=0;left=0;bottom=0;right=0;points=[[0,0.5],[1,0.5]];portConstraint=eastwest;" vertex="1" parent="IEBwx1ruP9Jk8ynMICCt-1">
          <mxGeometry y="30" width="180" height="30" as="geometry" />
        </mxCell>
        <mxCell id="IEBwx1ruP9Jk8ynMICCt-3" value="PK" style="shape=partialRectangle;connectable=0;fillColor=none;top=0;left=0;bottom=0;right=0;fontStyle=1;overflow=hidden;" vertex="1" parent="IEBwx1ruP9Jk8ynMICCt-2">
          <mxGeometry width="60" height="30" as="geometry" />
        </mxCell>
        <mxCell id="IEBwx1ruP9Jk8ynMICCt-4" value="id" style="shape=partialRectangle;connectable=0;fillColor=none;top=0;left=0;bottom=0;right=0;align=left;spacingLeft=6;fontStyle=5;overflow=hidden;" vertex="1" parent="IEBwx1ruP9Jk8ynMICCt-2">
          <mxGeometry x="60" width="120" height="30" as="geometry" />
        </mxCell>
        <mxCell id="IEBwx1ruP9Jk8ynMICCt-73" value="" style="shape=partialRectangle;collapsible=0;dropTarget=0;pointerEvents=0;fillColor=none;top=0;left=0;bottom=0;right=0;points=[[0,0.5],[1,0.5]];portConstraint=eastwest;" vertex="1" parent="IEBwx1ruP9Jk8ynMICCt-1">
          <mxGeometry y="60" width="180" height="30" as="geometry" />
        </mxCell>
        <mxCell id="IEBwx1ruP9Jk8ynMICCt-74" value="FK" style="shape=partialRectangle;connectable=0;fillColor=none;top=0;left=0;bottom=0;right=0;fontStyle=1;overflow=hidden;" vertex="1" parent="IEBwx1ruP9Jk8ynMICCt-73">
          <mxGeometry width="60" height="30" as="geometry" />
        </mxCell>
        <mxCell id="IEBwx1ruP9Jk8ynMICCt-75" value="department" style="shape=partialRectangle;connectable=0;fillColor=none;top=0;left=0;bottom=0;right=0;align=left;spacingLeft=6;fontStyle=5;overflow=hidden;" vertex="1" parent="IEBwx1ruP9Jk8ynMICCt-73">
          <mxGeometry x="60" width="120" height="30" as="geometry" />
        </mxCell>
        <mxCell id="IEBwx1ruP9Jk8ynMICCt-14" value="" style="shape=partialRectangle;collapsible=0;dropTarget=0;pointerEvents=0;fillColor=none;top=0;left=0;bottom=0;right=0;points=[[0,0.5],[1,0.5]];portConstraint=eastwest;" vertex="1" parent="IEBwx1ruP9Jk8ynMICCt-1">
          <mxGeometry y="90" width="180" height="30" as="geometry" />
        </mxCell>
        <mxCell id="IEBwx1ruP9Jk8ynMICCt-15" value="" style="shape=partialRectangle;connectable=0;fillColor=none;top=0;left=0;bottom=0;right=0;editable=1;overflow=hidden;" vertex="1" parent="IEBwx1ruP9Jk8ynMICCt-14">
          <mxGeometry width="60" height="30" as="geometry" />
        </mxCell>
        <mxCell id="IEBwx1ruP9Jk8ynMICCt-16" value="name" style="shape=partialRectangle;connectable=0;fillColor=none;top=0;left=0;bottom=0;right=0;align=left;spacingLeft=6;overflow=hidden;" vertex="1" parent="IEBwx1ruP9Jk8ynMICCt-14">
          <mxGeometry x="60" width="120" height="30" as="geometry" />
        </mxCell>
        <mxCell id="IEBwx1ruP9Jk8ynMICCt-8" value="" style="shape=partialRectangle;collapsible=0;dropTarget=0;pointerEvents=0;fillColor=none;top=0;left=0;bottom=0;right=0;points=[[0,0.5],[1,0.5]];portConstraint=eastwest;" vertex="1" parent="IEBwx1ruP9Jk8ynMICCt-1">
          <mxGeometry y="120" width="180" height="30" as="geometry" />
        </mxCell>
        <mxCell id="IEBwx1ruP9Jk8ynMICCt-9" value="" style="shape=partialRectangle;connectable=0;fillColor=none;top=0;left=0;bottom=0;right=0;editable=1;overflow=hidden;" vertex="1" parent="IEBwx1ruP9Jk8ynMICCt-8">
          <mxGeometry width="60" height="30" as="geometry" />
        </mxCell>
        <mxCell id="IEBwx1ruP9Jk8ynMICCt-10" value="password" style="shape=partialRectangle;connectable=0;fillColor=none;top=0;left=0;bottom=0;right=0;align=left;spacingLeft=6;overflow=hidden;" vertex="1" parent="IEBwx1ruP9Jk8ynMICCt-8">
          <mxGeometry x="60" width="120" height="30" as="geometry" />
        </mxCell>
        <mxCell id="IEBwx1ruP9Jk8ynMICCt-11" value="" style="shape=partialRectangle;collapsible=0;dropTarget=0;pointerEvents=0;fillColor=none;top=0;left=0;bottom=0;right=0;points=[[0,0.5],[1,0.5]];portConstraint=eastwest;" vertex="1" parent="IEBwx1ruP9Jk8ynMICCt-1">
          <mxGeometry y="150" width="180" height="30" as="geometry" />
        </mxCell>
        <mxCell id="IEBwx1ruP9Jk8ynMICCt-12" value="" style="shape=partialRectangle;connectable=0;fillColor=none;top=0;left=0;bottom=0;right=0;editable=1;overflow=hidden;" vertex="1" parent="IEBwx1ruP9Jk8ynMICCt-11">
          <mxGeometry width="60" height="30" as="geometry" />
        </mxCell>
        <mxCell id="IEBwx1ruP9Jk8ynMICCt-13" value="email" style="shape=partialRectangle;connectable=0;fillColor=none;top=0;left=0;bottom=0;right=0;align=left;spacingLeft=6;overflow=hidden;" vertex="1" parent="IEBwx1ruP9Jk8ynMICCt-11">
          <mxGeometry x="60" width="120" height="30" as="geometry" />
        </mxCell>
        <mxCell id="IEBwx1ruP9Jk8ynMICCt-45" value="" style="shape=partialRectangle;collapsible=0;dropTarget=0;pointerEvents=0;fillColor=none;top=0;left=0;bottom=0;right=0;points=[[0,0.5],[1,0.5]];portConstraint=eastwest;" vertex="1" parent="IEBwx1ruP9Jk8ynMICCt-1">
          <mxGeometry y="180" width="180" height="30" as="geometry" />
        </mxCell>
        <mxCell id="IEBwx1ruP9Jk8ynMICCt-46" value="" style="shape=partialRectangle;connectable=0;fillColor=none;top=0;left=0;bottom=0;right=0;editable=1;overflow=hidden;" vertex="1" parent="IEBwx1ruP9Jk8ynMICCt-45">
          <mxGeometry width="60" height="30" as="geometry" />
        </mxCell>
        <mxCell id="IEBwx1ruP9Jk8ynMICCt-47" value="address" style="shape=partialRectangle;connectable=0;fillColor=none;top=0;left=0;bottom=0;right=0;align=left;spacingLeft=6;overflow=hidden;" vertex="1" parent="IEBwx1ruP9Jk8ynMICCt-45">
          <mxGeometry x="60" width="120" height="30" as="geometry" />
        </mxCell>
        <mxCell id="IEBwx1ruP9Jk8ynMICCt-117" value="" style="shape=partialRectangle;collapsible=0;dropTarget=0;pointerEvents=0;fillColor=none;top=0;left=0;bottom=0;right=0;points=[[0,0.5],[1,0.5]];portConstraint=eastwest;" vertex="1" parent="IEBwx1ruP9Jk8ynMICCt-1">
          <mxGeometry y="210" width="180" height="30" as="geometry" />
        </mxCell>
        <mxCell id="IEBwx1ruP9Jk8ynMICCt-118" value="" style="shape=partialRectangle;connectable=0;fillColor=none;top=0;left=0;bottom=0;right=0;editable=1;overflow=hidden;" vertex="1" parent="IEBwx1ruP9Jk8ynMICCt-117">
          <mxGeometry width="60" height="30" as="geometry" />
        </mxCell>
        <mxCell id="IEBwx1ruP9Jk8ynMICCt-119" value="createdtime" style="shape=partialRectangle;connectable=0;fillColor=none;top=0;left=0;bottom=0;right=0;align=left;spacingLeft=6;overflow=hidden;" vertex="1" parent="IEBwx1ruP9Jk8ynMICCt-117">
          <mxGeometry x="60" width="120" height="30" as="geometry" />
        </mxCell>
        <mxCell id="IEBwx1ruP9Jk8ynMICCt-54" value="board" style="shape=table;startSize=30;container=1;collapsible=1;childLayout=tableLayout;fixedRows=1;rowLines=0;fontStyle=1;align=center;resizeLast=1;" vertex="1" parent="1">
          <mxGeometry x="830" y="50" width="180" height="250.0000000000001" as="geometry" />
        </mxCell>
        <mxCell id="IEBwx1ruP9Jk8ynMICCt-55" value="" style="shape=partialRectangle;collapsible=0;dropTarget=0;pointerEvents=0;fillColor=none;top=0;left=0;bottom=0;right=0;points=[[0,0.5],[1,0.5]];portConstraint=eastwest;" vertex="1" parent="IEBwx1ruP9Jk8ynMICCt-54">
          <mxGeometry y="30" width="180" height="30" as="geometry" />
        </mxCell>
        <mxCell id="IEBwx1ruP9Jk8ynMICCt-56" value="FK" style="shape=partialRectangle;connectable=0;fillColor=none;top=0;left=0;bottom=0;right=0;fontStyle=1;overflow=hidden;" vertex="1" parent="IEBwx1ruP9Jk8ynMICCt-55">
          <mxGeometry width="60" height="30" as="geometry" />
        </mxCell>
        <mxCell id="IEBwx1ruP9Jk8ynMICCt-57" value="id" style="shape=partialRectangle;connectable=0;fillColor=none;top=0;left=0;bottom=0;right=0;align=left;spacingLeft=6;fontStyle=5;overflow=hidden;" vertex="1" parent="IEBwx1ruP9Jk8ynMICCt-55">
          <mxGeometry x="60" width="120" height="30" as="geometry" />
        </mxCell>
        <mxCell id="IEBwx1ruP9Jk8ynMICCt-78" value="" style="shape=partialRectangle;collapsible=0;dropTarget=0;pointerEvents=0;fillColor=none;top=0;left=0;bottom=0;right=0;points=[[0,0.5],[1,0.5]];portConstraint=eastwest;" vertex="1" parent="IEBwx1ruP9Jk8ynMICCt-54">
          <mxGeometry y="60" width="180" height="30" as="geometry" />
        </mxCell>
        <mxCell id="IEBwx1ruP9Jk8ynMICCt-79" value="PK" style="shape=partialRectangle;connectable=0;fillColor=none;top=0;left=0;bottom=0;right=0;fontStyle=1;overflow=hidden;" vertex="1" parent="IEBwx1ruP9Jk8ynMICCt-78">
          <mxGeometry width="60" height="30" as="geometry" />
        </mxCell>
        <mxCell id="IEBwx1ruP9Jk8ynMICCt-80" value="sequence" style="shape=partialRectangle;connectable=0;fillColor=none;top=0;left=0;bottom=0;right=0;align=left;spacingLeft=6;fontStyle=5;overflow=hidden;" vertex="1" parent="IEBwx1ruP9Jk8ynMICCt-78">
          <mxGeometry x="60" width="120" height="30" as="geometry" />
        </mxCell>
        <mxCell id="IEBwx1ruP9Jk8ynMICCt-67" value="" style="shape=partialRectangle;collapsible=0;dropTarget=0;pointerEvents=0;fillColor=none;top=0;left=0;bottom=0;right=0;points=[[0,0.5],[1,0.5]];portConstraint=eastwest;" vertex="1" parent="IEBwx1ruP9Jk8ynMICCt-54">
          <mxGeometry y="90" width="180" height="30" as="geometry" />
        </mxCell>
        <mxCell id="IEBwx1ruP9Jk8ynMICCt-68" value="" style="shape=partialRectangle;connectable=0;fillColor=none;top=0;left=0;bottom=0;right=0;editable=1;overflow=hidden;" vertex="1" parent="IEBwx1ruP9Jk8ynMICCt-67">
          <mxGeometry width="60" height="30" as="geometry" />
        </mxCell>
        <mxCell id="IEBwx1ruP9Jk8ynMICCt-69" value="title" style="shape=partialRectangle;connectable=0;fillColor=none;top=0;left=0;bottom=0;right=0;align=left;spacingLeft=6;overflow=hidden;" vertex="1" parent="IEBwx1ruP9Jk8ynMICCt-67">
          <mxGeometry x="60" width="120" height="30" as="geometry" />
        </mxCell>
        <mxCell id="IEBwx1ruP9Jk8ynMICCt-70" value="" style="shape=partialRectangle;collapsible=0;dropTarget=0;pointerEvents=0;fillColor=none;top=0;left=0;bottom=0;right=0;points=[[0,0.5],[1,0.5]];portConstraint=eastwest;" vertex="1" parent="IEBwx1ruP9Jk8ynMICCt-54">
          <mxGeometry y="120" width="180" height="30" as="geometry" />
        </mxCell>
        <mxCell id="IEBwx1ruP9Jk8ynMICCt-71" value="" style="shape=partialRectangle;connectable=0;fillColor=none;top=0;left=0;bottom=0;right=0;editable=1;overflow=hidden;" vertex="1" parent="IEBwx1ruP9Jk8ynMICCt-70">
          <mxGeometry width="60" height="30" as="geometry" />
        </mxCell>
        <mxCell id="IEBwx1ruP9Jk8ynMICCt-72" value="content" style="shape=partialRectangle;connectable=0;fillColor=none;top=0;left=0;bottom=0;right=0;align=left;spacingLeft=6;overflow=hidden;" vertex="1" parent="IEBwx1ruP9Jk8ynMICCt-70">
          <mxGeometry x="60" width="120" height="30" as="geometry" />
        </mxCell>
        <mxCell id="IEBwx1ruP9Jk8ynMICCt-84" value="" style="shape=partialRectangle;collapsible=0;dropTarget=0;pointerEvents=0;fillColor=none;top=0;left=0;bottom=0;right=0;points=[[0,0.5],[1,0.5]];portConstraint=eastwest;" vertex="1" parent="IEBwx1ruP9Jk8ynMICCt-54">
          <mxGeometry y="150" width="180" height="30" as="geometry" />
        </mxCell>
        <mxCell id="IEBwx1ruP9Jk8ynMICCt-85" value="" style="shape=partialRectangle;connectable=0;fillColor=none;top=0;left=0;bottom=0;right=0;editable=1;overflow=hidden;" vertex="1" parent="IEBwx1ruP9Jk8ynMICCt-84">
          <mxGeometry width="60" height="30" as="geometry" />
        </mxCell>
        <mxCell id="IEBwx1ruP9Jk8ynMICCt-86" value="views" style="shape=partialRectangle;connectable=0;fillColor=none;top=0;left=0;bottom=0;right=0;align=left;spacingLeft=6;overflow=hidden;" vertex="1" parent="IEBwx1ruP9Jk8ynMICCt-84">
          <mxGeometry x="60" width="120" height="30" as="geometry" />
        </mxCell>
        <mxCell id="IEBwx1ruP9Jk8ynMICCt-87" value="" style="shape=partialRectangle;collapsible=0;dropTarget=0;pointerEvents=0;fillColor=none;top=0;left=0;bottom=0;right=0;points=[[0,0.5],[1,0.5]];portConstraint=eastwest;" vertex="1" parent="IEBwx1ruP9Jk8ynMICCt-54">
          <mxGeometry y="180" width="180" height="30" as="geometry" />
        </mxCell>
        <mxCell id="IEBwx1ruP9Jk8ynMICCt-88" value="" style="shape=partialRectangle;connectable=0;fillColor=none;top=0;left=0;bottom=0;right=0;editable=1;overflow=hidden;" vertex="1" parent="IEBwx1ruP9Jk8ynMICCt-87">
          <mxGeometry width="60" height="30" as="geometry" />
        </mxCell>
        <mxCell id="IEBwx1ruP9Jk8ynMICCt-89" value="createdtime" style="shape=partialRectangle;connectable=0;fillColor=none;top=0;left=0;bottom=0;right=0;align=left;spacingLeft=6;overflow=hidden;" vertex="1" parent="IEBwx1ruP9Jk8ynMICCt-87">
          <mxGeometry x="60" width="120" height="30" as="geometry" />
        </mxCell>
        <mxCell id="IEBwx1ruP9Jk8ynMICCt-92" value="" style="shape=partialRectangle;collapsible=0;dropTarget=0;pointerEvents=0;fillColor=none;top=0;left=0;bottom=0;right=0;points=[[0,0.5],[1,0.5]];portConstraint=eastwest;" vertex="1" parent="IEBwx1ruP9Jk8ynMICCt-54">
          <mxGeometry y="210" width="180" height="30" as="geometry" />
        </mxCell>
        <mxCell id="IEBwx1ruP9Jk8ynMICCt-93" value="" style="shape=partialRectangle;connectable=0;fillColor=none;top=0;left=0;bottom=0;right=0;editable=1;overflow=hidden;" vertex="1" parent="IEBwx1ruP9Jk8ynMICCt-92">
          <mxGeometry width="60" height="30" as="geometry" />
        </mxCell>
        <mxCell id="IEBwx1ruP9Jk8ynMICCt-94" value="upadetedtime" style="shape=partialRectangle;connectable=0;fillColor=none;top=0;left=0;bottom=0;right=0;align=left;spacingLeft=6;overflow=hidden;" vertex="1" parent="IEBwx1ruP9Jk8ynMICCt-92">
          <mxGeometry x="60" width="120" height="30" as="geometry" />
        </mxCell>
        <mxCell id="IEBwx1ruP9Jk8ynMICCt-123" value="account" style="shape=table;startSize=30;container=1;collapsible=1;childLayout=tableLayout;fixedRows=1;rowLines=0;fontStyle=1;align=center;resizeLast=1;" vertex="1" parent="1">
          <mxGeometry x="620" y="720" width="180" height="340" as="geometry" />
        </mxCell>
        <mxCell id="IEBwx1ruP9Jk8ynMICCt-127" value="" style="shape=partialRectangle;collapsible=0;dropTarget=0;pointerEvents=0;fillColor=none;top=0;left=0;bottom=0;right=0;points=[[0,0.5],[1,0.5]];portConstraint=eastwest;" vertex="1" parent="IEBwx1ruP9Jk8ynMICCt-123">
          <mxGeometry y="30" width="180" height="30" as="geometry" />
        </mxCell>
        <mxCell id="IEBwx1ruP9Jk8ynMICCt-128" value="FK" style="shape=partialRectangle;connectable=0;fillColor=none;top=0;left=0;bottom=0;right=0;fontStyle=1;overflow=hidden;" vertex="1" parent="IEBwx1ruP9Jk8ynMICCt-127">
          <mxGeometry width="60" height="30" as="geometry" />
        </mxCell>
        <mxCell id="IEBwx1ruP9Jk8ynMICCt-129" value="accountid" style="shape=partialRectangle;connectable=0;fillColor=none;top=0;left=0;bottom=0;right=0;align=left;spacingLeft=6;fontStyle=5;overflow=hidden;" vertex="1" parent="IEBwx1ruP9Jk8ynMICCt-127">
          <mxGeometry x="60" width="120" height="30" as="geometry" />
        </mxCell>
        <mxCell id="IEBwx1ruP9Jk8ynMICCt-124" value="" style="shape=partialRectangle;collapsible=0;dropTarget=0;pointerEvents=0;fillColor=none;top=0;left=0;bottom=0;right=0;points=[[0,0.5],[1,0.5]];portConstraint=eastwest;" vertex="1" parent="IEBwx1ruP9Jk8ynMICCt-123">
          <mxGeometry y="60" width="180" height="30" as="geometry" />
        </mxCell>
        <mxCell id="IEBwx1ruP9Jk8ynMICCt-125" value="PK" style="shape=partialRectangle;connectable=0;fillColor=none;top=0;left=0;bottom=0;right=0;fontStyle=1;overflow=hidden;" vertex="1" parent="IEBwx1ruP9Jk8ynMICCt-124">
          <mxGeometry width="60" height="30" as="geometry" />
        </mxCell>
        <mxCell id="IEBwx1ruP9Jk8ynMICCt-126" value="productid" style="shape=partialRectangle;connectable=0;fillColor=none;top=0;left=0;bottom=0;right=0;align=left;spacingLeft=6;fontStyle=5;overflow=hidden;" vertex="1" parent="IEBwx1ruP9Jk8ynMICCt-124">
          <mxGeometry x="60" width="120" height="30" as="geometry" />
        </mxCell>
        <mxCell id="IEBwx1ruP9Jk8ynMICCt-240" value="" style="shape=partialRectangle;collapsible=0;dropTarget=0;pointerEvents=0;fillColor=none;top=0;left=0;bottom=0;right=0;points=[[0,0.5],[1,0.5]];portConstraint=eastwest;" vertex="1" parent="IEBwx1ruP9Jk8ynMICCt-123">
          <mxGeometry y="90" width="180" height="30" as="geometry" />
        </mxCell>
        <mxCell id="IEBwx1ruP9Jk8ynMICCt-241" value="PK" style="shape=partialRectangle;connectable=0;fillColor=none;top=0;left=0;bottom=0;right=0;fontStyle=1;overflow=hidden;" vertex="1" parent="IEBwx1ruP9Jk8ynMICCt-240">
          <mxGeometry width="60" height="30" as="geometry" />
        </mxCell>
        <mxCell id="IEBwx1ruP9Jk8ynMICCt-242" value="manufacturerid" style="shape=partialRectangle;connectable=0;fillColor=none;top=0;left=0;bottom=0;right=0;align=left;spacingLeft=6;fontStyle=5;overflow=hidden;" vertex="1" parent="IEBwx1ruP9Jk8ynMICCt-240">
          <mxGeometry x="60" width="120" height="30" as="geometry" />
        </mxCell>
        <mxCell id="IEBwx1ruP9Jk8ynMICCt-130" value="" style="shape=partialRectangle;collapsible=0;dropTarget=0;pointerEvents=0;fillColor=none;top=0;left=0;bottom=0;right=0;points=[[0,0.5],[1,0.5]];portConstraint=eastwest;" vertex="1" parent="IEBwx1ruP9Jk8ynMICCt-123">
          <mxGeometry y="120" width="180" height="30" as="geometry" />
        </mxCell>
        <mxCell id="IEBwx1ruP9Jk8ynMICCt-131" value="" style="shape=partialRectangle;connectable=0;fillColor=none;top=0;left=0;bottom=0;right=0;editable=1;overflow=hidden;" vertex="1" parent="IEBwx1ruP9Jk8ynMICCt-130">
          <mxGeometry width="60" height="30" as="geometry" />
        </mxCell>
        <mxCell id="IEBwx1ruP9Jk8ynMICCt-132" value="department" style="shape=partialRectangle;connectable=0;fillColor=none;top=0;left=0;bottom=0;right=0;align=left;spacingLeft=6;overflow=hidden;" vertex="1" parent="IEBwx1ruP9Jk8ynMICCt-130">
          <mxGeometry x="60" width="120" height="30" as="geometry" />
        </mxCell>
        <mxCell id="IEBwx1ruP9Jk8ynMICCt-133" value="" style="shape=partialRectangle;collapsible=0;dropTarget=0;pointerEvents=0;fillColor=none;top=0;left=0;bottom=0;right=0;points=[[0,0.5],[1,0.5]];portConstraint=eastwest;" vertex="1" parent="IEBwx1ruP9Jk8ynMICCt-123">
          <mxGeometry y="150" width="180" height="30" as="geometry" />
        </mxCell>
        <mxCell id="IEBwx1ruP9Jk8ynMICCt-134" value="" style="shape=partialRectangle;connectable=0;fillColor=none;top=0;left=0;bottom=0;right=0;editable=1;overflow=hidden;" vertex="1" parent="IEBwx1ruP9Jk8ynMICCt-133">
          <mxGeometry width="60" height="30" as="geometry" />
        </mxCell>
        <mxCell id="IEBwx1ruP9Jk8ynMICCt-135" value="name" style="shape=partialRectangle;connectable=0;fillColor=none;top=0;left=0;bottom=0;right=0;align=left;spacingLeft=6;overflow=hidden;" vertex="1" parent="IEBwx1ruP9Jk8ynMICCt-133">
          <mxGeometry x="60" width="120" height="30" as="geometry" />
        </mxCell>
        <mxCell id="IEBwx1ruP9Jk8ynMICCt-136" value="" style="shape=partialRectangle;collapsible=0;dropTarget=0;pointerEvents=0;fillColor=none;top=0;left=0;bottom=0;right=0;points=[[0,0.5],[1,0.5]];portConstraint=eastwest;" vertex="1" parent="IEBwx1ruP9Jk8ynMICCt-123">
          <mxGeometry y="180" width="180" height="30" as="geometry" />
        </mxCell>
        <mxCell id="IEBwx1ruP9Jk8ynMICCt-137" value="" style="shape=partialRectangle;connectable=0;fillColor=none;top=0;left=0;bottom=0;right=0;editable=1;overflow=hidden;" vertex="1" parent="IEBwx1ruP9Jk8ynMICCt-136">
          <mxGeometry width="60" height="30" as="geometry" />
        </mxCell>
        <mxCell id="IEBwx1ruP9Jk8ynMICCt-138" value="number" style="shape=partialRectangle;connectable=0;fillColor=none;top=0;left=0;bottom=0;right=0;align=left;spacingLeft=6;overflow=hidden;" vertex="1" parent="IEBwx1ruP9Jk8ynMICCt-136">
          <mxGeometry x="60" width="120" height="30" as="geometry" />
        </mxCell>
        <mxCell id="IEBwx1ruP9Jk8ynMICCt-206" value="" style="shape=partialRectangle;collapsible=0;dropTarget=0;pointerEvents=0;fillColor=none;top=0;left=0;bottom=0;right=0;points=[[0,0.5],[1,0.5]];portConstraint=eastwest;" vertex="1" parent="IEBwx1ruP9Jk8ynMICCt-123">
          <mxGeometry y="210" width="180" height="30" as="geometry" />
        </mxCell>
        <mxCell id="IEBwx1ruP9Jk8ynMICCt-207" value="" style="shape=partialRectangle;connectable=0;fillColor=none;top=0;left=0;bottom=0;right=0;editable=1;overflow=hidden;" vertex="1" parent="IEBwx1ruP9Jk8ynMICCt-206">
          <mxGeometry width="60" height="30" as="geometry" />
        </mxCell>
        <mxCell id="IEBwx1ruP9Jk8ynMICCt-208" value="address" style="shape=partialRectangle;connectable=0;fillColor=none;top=0;left=0;bottom=0;right=0;align=left;spacingLeft=6;overflow=hidden;" vertex="1" parent="IEBwx1ruP9Jk8ynMICCt-206">
          <mxGeometry x="60" width="120" height="30" as="geometry" />
        </mxCell>
        <mxCell id="IEBwx1ruP9Jk8ynMICCt-145" value="" style="shape=partialRectangle;collapsible=0;dropTarget=0;pointerEvents=0;fillColor=none;top=0;left=0;bottom=0;right=0;points=[[0,0.5],[1,0.5]];portConstraint=eastwest;" vertex="1" parent="IEBwx1ruP9Jk8ynMICCt-123">
          <mxGeometry y="240" width="180" height="30" as="geometry" />
        </mxCell>
        <mxCell id="IEBwx1ruP9Jk8ynMICCt-146" value="" style="shape=partialRectangle;connectable=0;fillColor=none;top=0;left=0;bottom=0;right=0;editable=1;overflow=hidden;" vertex="1" parent="IEBwx1ruP9Jk8ynMICCt-145">
          <mxGeometry width="60" height="30" as="geometry" />
        </mxCell>
        <mxCell id="IEBwx1ruP9Jk8ynMICCt-147" value="description" style="shape=partialRectangle;connectable=0;fillColor=none;top=0;left=0;bottom=0;right=0;align=left;spacingLeft=6;overflow=hidden;" vertex="1" parent="IEBwx1ruP9Jk8ynMICCt-145">
          <mxGeometry x="60" width="120" height="30" as="geometry" />
        </mxCell>
        <mxCell id="IEBwx1ruP9Jk8ynMICCt-139" value="" style="shape=partialRectangle;collapsible=0;dropTarget=0;pointerEvents=0;fillColor=none;top=0;left=0;bottom=0;right=0;points=[[0,0.5],[1,0.5]];portConstraint=eastwest;" vertex="1" parent="IEBwx1ruP9Jk8ynMICCt-123">
          <mxGeometry y="270" width="180" height="30" as="geometry" />
        </mxCell>
        <mxCell id="IEBwx1ruP9Jk8ynMICCt-140" value="" style="shape=partialRectangle;connectable=0;fillColor=none;top=0;left=0;bottom=0;right=0;editable=1;overflow=hidden;" vertex="1" parent="IEBwx1ruP9Jk8ynMICCt-139">
          <mxGeometry width="60" height="30" as="geometry" />
        </mxCell>
        <mxCell id="IEBwx1ruP9Jk8ynMICCt-141" value="createdtime" style="shape=partialRectangle;connectable=0;fillColor=none;top=0;left=0;bottom=0;right=0;align=left;spacingLeft=6;overflow=hidden;" vertex="1" parent="IEBwx1ruP9Jk8ynMICCt-139">
          <mxGeometry x="60" width="120" height="30" as="geometry" />
        </mxCell>
        <mxCell id="IEBwx1ruP9Jk8ynMICCt-142" value="" style="shape=partialRectangle;collapsible=0;dropTarget=0;pointerEvents=0;fillColor=none;top=0;left=0;bottom=0;right=0;points=[[0,0.5],[1,0.5]];portConstraint=eastwest;" vertex="1" parent="IEBwx1ruP9Jk8ynMICCt-123">
          <mxGeometry y="300" width="180" height="30" as="geometry" />
        </mxCell>
        <mxCell id="IEBwx1ruP9Jk8ynMICCt-143" value="" style="shape=partialRectangle;connectable=0;fillColor=none;top=0;left=0;bottom=0;right=0;editable=1;overflow=hidden;" vertex="1" parent="IEBwx1ruP9Jk8ynMICCt-142">
          <mxGeometry width="60" height="30" as="geometry" />
        </mxCell>
        <mxCell id="IEBwx1ruP9Jk8ynMICCt-144" value="upadetedtime" style="shape=partialRectangle;connectable=0;fillColor=none;top=0;left=0;bottom=0;right=0;align=left;spacingLeft=6;overflow=hidden;" vertex="1" parent="IEBwx1ruP9Jk8ynMICCt-142">
          <mxGeometry x="60" width="120" height="30" as="geometry" />
        </mxCell>
        <mxCell id="IEBwx1ruP9Jk8ynMICCt-290" value="" style="edgeStyle=entityRelationEdgeStyle;fontSize=12;html=1;endArrow=ERzeroToMany;endFill=1;" edge="1" parent="1" source="IEBwx1ruP9Jk8ynMICCt-124" target="IEBwx1ruP9Jk8ynMICCt-272">
          <mxGeometry width="100" height="100" relative="1" as="geometry">
            <mxPoint x="580" y="795" as="sourcePoint" />
            <mxPoint x="950" y="835" as="targetPoint" />
          </mxGeometry>
        </mxCell>
        <mxCell id="IEBwx1ruP9Jk8ynMICCt-148" value="manufacterur" style="shape=table;startSize=30;container=1;collapsible=1;childLayout=tableLayout;fixedRows=1;rowLines=0;fontStyle=1;align=center;resizeLast=1;" vertex="1" parent="1">
          <mxGeometry x="940" y="810" width="180" height="280" as="geometry" />
        </mxCell>
        <mxCell id="IEBwx1ruP9Jk8ynMICCt-149" value="" style="shape=partialRectangle;collapsible=0;dropTarget=0;pointerEvents=0;fillColor=none;top=0;left=0;bottom=0;right=0;points=[[0,0.5],[1,0.5]];portConstraint=eastwest;" vertex="1" parent="IEBwx1ruP9Jk8ynMICCt-148">
          <mxGeometry y="30" width="180" height="30" as="geometry" />
        </mxCell>
        <mxCell id="IEBwx1ruP9Jk8ynMICCt-150" value="FK" style="shape=partialRectangle;connectable=0;fillColor=none;top=0;left=0;bottom=0;right=0;fontStyle=1;overflow=hidden;" vertex="1" parent="IEBwx1ruP9Jk8ynMICCt-149">
          <mxGeometry width="60" height="30" as="geometry" />
        </mxCell>
        <mxCell id="IEBwx1ruP9Jk8ynMICCt-151" value="manufacturerid" style="shape=partialRectangle;connectable=0;fillColor=none;top=0;left=0;bottom=0;right=0;align=left;spacingLeft=6;fontStyle=5;overflow=hidden;" vertex="1" parent="IEBwx1ruP9Jk8ynMICCt-149">
          <mxGeometry x="60" width="120" height="30" as="geometry" />
        </mxCell>
        <mxCell id="IEBwx1ruP9Jk8ynMICCt-152" value="" style="shape=partialRectangle;collapsible=0;dropTarget=0;pointerEvents=0;fillColor=none;top=0;left=0;bottom=0;right=0;points=[[0,0.5],[1,0.5]];portConstraint=eastwest;" vertex="1" parent="IEBwx1ruP9Jk8ynMICCt-148">
          <mxGeometry y="60" width="180" height="30" as="geometry" />
        </mxCell>
        <mxCell id="IEBwx1ruP9Jk8ynMICCt-153" value="PK" style="shape=partialRectangle;connectable=0;fillColor=none;top=0;left=0;bottom=0;right=0;fontStyle=1;overflow=hidden;" vertex="1" parent="IEBwx1ruP9Jk8ynMICCt-152">
          <mxGeometry width="60" height="30" as="geometry" />
        </mxCell>
        <mxCell id="IEBwx1ruP9Jk8ynMICCt-154" value="catagory" style="shape=partialRectangle;connectable=0;fillColor=none;top=0;left=0;bottom=0;right=0;align=left;spacingLeft=6;fontStyle=5;overflow=hidden;" vertex="1" parent="IEBwx1ruP9Jk8ynMICCt-152">
          <mxGeometry x="60" width="120" height="30" as="geometry" />
        </mxCell>
        <mxCell id="IEBwx1ruP9Jk8ynMICCt-155" value="" style="shape=partialRectangle;collapsible=0;dropTarget=0;pointerEvents=0;fillColor=none;top=0;left=0;bottom=0;right=0;points=[[0,0.5],[1,0.5]];portConstraint=eastwest;" vertex="1" parent="IEBwx1ruP9Jk8ynMICCt-148">
          <mxGeometry y="90" width="180" height="30" as="geometry" />
        </mxCell>
        <mxCell id="IEBwx1ruP9Jk8ynMICCt-156" value="" style="shape=partialRectangle;connectable=0;fillColor=none;top=0;left=0;bottom=0;right=0;editable=1;overflow=hidden;" vertex="1" parent="IEBwx1ruP9Jk8ynMICCt-155">
          <mxGeometry width="60" height="30" as="geometry" />
        </mxCell>
        <mxCell id="IEBwx1ruP9Jk8ynMICCt-157" value="department" style="shape=partialRectangle;connectable=0;fillColor=none;top=0;left=0;bottom=0;right=0;align=left;spacingLeft=6;overflow=hidden;" vertex="1" parent="IEBwx1ruP9Jk8ynMICCt-155">
          <mxGeometry x="60" width="120" height="30" as="geometry" />
        </mxCell>
        <mxCell id="IEBwx1ruP9Jk8ynMICCt-158" value="" style="shape=partialRectangle;collapsible=0;dropTarget=0;pointerEvents=0;fillColor=none;top=0;left=0;bottom=0;right=0;points=[[0,0.5],[1,0.5]];portConstraint=eastwest;" vertex="1" parent="IEBwx1ruP9Jk8ynMICCt-148">
          <mxGeometry y="120" width="180" height="30" as="geometry" />
        </mxCell>
        <mxCell id="IEBwx1ruP9Jk8ynMICCt-159" value="" style="shape=partialRectangle;connectable=0;fillColor=none;top=0;left=0;bottom=0;right=0;editable=1;overflow=hidden;" vertex="1" parent="IEBwx1ruP9Jk8ynMICCt-158">
          <mxGeometry width="60" height="30" as="geometry" />
        </mxCell>
        <mxCell id="IEBwx1ruP9Jk8ynMICCt-160" value="name" style="shape=partialRectangle;connectable=0;fillColor=none;top=0;left=0;bottom=0;right=0;align=left;spacingLeft=6;overflow=hidden;" vertex="1" parent="IEBwx1ruP9Jk8ynMICCt-158">
          <mxGeometry x="60" width="120" height="30" as="geometry" />
        </mxCell>
        <mxCell id="IEBwx1ruP9Jk8ynMICCt-161" value="" style="shape=partialRectangle;collapsible=0;dropTarget=0;pointerEvents=0;fillColor=none;top=0;left=0;bottom=0;right=0;points=[[0,0.5],[1,0.5]];portConstraint=eastwest;" vertex="1" parent="IEBwx1ruP9Jk8ynMICCt-148">
          <mxGeometry y="150" width="180" height="30" as="geometry" />
        </mxCell>
        <mxCell id="IEBwx1ruP9Jk8ynMICCt-162" value="" style="shape=partialRectangle;connectable=0;fillColor=none;top=0;left=0;bottom=0;right=0;editable=1;overflow=hidden;" vertex="1" parent="IEBwx1ruP9Jk8ynMICCt-161">
          <mxGeometry width="60" height="30" as="geometry" />
        </mxCell>
        <mxCell id="IEBwx1ruP9Jk8ynMICCt-163" value="number" style="shape=partialRectangle;connectable=0;fillColor=none;top=0;left=0;bottom=0;right=0;align=left;spacingLeft=6;overflow=hidden;" vertex="1" parent="IEBwx1ruP9Jk8ynMICCt-161">
          <mxGeometry x="60" width="120" height="30" as="geometry" />
        </mxCell>
        <mxCell id="IEBwx1ruP9Jk8ynMICCt-164" value="" style="shape=partialRectangle;collapsible=0;dropTarget=0;pointerEvents=0;fillColor=none;top=0;left=0;bottom=0;right=0;points=[[0,0.5],[1,0.5]];portConstraint=eastwest;" vertex="1" parent="IEBwx1ruP9Jk8ynMICCt-148">
          <mxGeometry y="180" width="180" height="30" as="geometry" />
        </mxCell>
        <mxCell id="IEBwx1ruP9Jk8ynMICCt-165" value="" style="shape=partialRectangle;connectable=0;fillColor=none;top=0;left=0;bottom=0;right=0;editable=1;overflow=hidden;" vertex="1" parent="IEBwx1ruP9Jk8ynMICCt-164">
          <mxGeometry width="60" height="30" as="geometry" />
        </mxCell>
        <mxCell id="IEBwx1ruP9Jk8ynMICCt-166" value="description" style="shape=partialRectangle;connectable=0;fillColor=none;top=0;left=0;bottom=0;right=0;align=left;spacingLeft=6;overflow=hidden;" vertex="1" parent="IEBwx1ruP9Jk8ynMICCt-164">
          <mxGeometry x="60" width="120" height="30" as="geometry" />
        </mxCell>
        <mxCell id="IEBwx1ruP9Jk8ynMICCt-167" value="" style="shape=partialRectangle;collapsible=0;dropTarget=0;pointerEvents=0;fillColor=none;top=0;left=0;bottom=0;right=0;points=[[0,0.5],[1,0.5]];portConstraint=eastwest;" vertex="1" parent="IEBwx1ruP9Jk8ynMICCt-148">
          <mxGeometry y="210" width="180" height="30" as="geometry" />
        </mxCell>
        <mxCell id="IEBwx1ruP9Jk8ynMICCt-168" value="" style="shape=partialRectangle;connectable=0;fillColor=none;top=0;left=0;bottom=0;right=0;editable=1;overflow=hidden;" vertex="1" parent="IEBwx1ruP9Jk8ynMICCt-167">
          <mxGeometry width="60" height="30" as="geometry" />
        </mxCell>
        <mxCell id="IEBwx1ruP9Jk8ynMICCt-169" value="createdtime" style="shape=partialRectangle;connectable=0;fillColor=none;top=0;left=0;bottom=0;right=0;align=left;spacingLeft=6;overflow=hidden;" vertex="1" parent="IEBwx1ruP9Jk8ynMICCt-167">
          <mxGeometry x="60" width="120" height="30" as="geometry" />
        </mxCell>
        <mxCell id="IEBwx1ruP9Jk8ynMICCt-170" value="" style="shape=partialRectangle;collapsible=0;dropTarget=0;pointerEvents=0;fillColor=none;top=0;left=0;bottom=0;right=0;points=[[0,0.5],[1,0.5]];portConstraint=eastwest;" vertex="1" parent="IEBwx1ruP9Jk8ynMICCt-148">
          <mxGeometry y="240" width="180" height="30" as="geometry" />
        </mxCell>
        <mxCell id="IEBwx1ruP9Jk8ynMICCt-171" value="" style="shape=partialRectangle;connectable=0;fillColor=none;top=0;left=0;bottom=0;right=0;editable=1;overflow=hidden;" vertex="1" parent="IEBwx1ruP9Jk8ynMICCt-170">
          <mxGeometry width="60" height="30" as="geometry" />
        </mxCell>
        <mxCell id="IEBwx1ruP9Jk8ynMICCt-172" value="upadetedtime" style="shape=partialRectangle;connectable=0;fillColor=none;top=0;left=0;bottom=0;right=0;align=left;spacingLeft=6;overflow=hidden;" vertex="1" parent="IEBwx1ruP9Jk8ynMICCt-170">
          <mxGeometry x="60" width="120" height="30" as="geometry" />
        </mxCell>
        <mxCell id="IEBwx1ruP9Jk8ynMICCt-95" value="product_catagory" style="shape=table;startSize=30;container=1;collapsible=1;childLayout=tableLayout;fixedRows=1;rowLines=0;fontStyle=1;align=center;resizeLast=1;" vertex="1" parent="1">
          <mxGeometry x="1240" y="810" width="180" height="220" as="geometry" />
        </mxCell>
        <mxCell id="IEBwx1ruP9Jk8ynMICCt-96" value="" style="shape=partialRectangle;collapsible=0;dropTarget=0;pointerEvents=0;fillColor=none;top=0;left=0;bottom=0;right=0;points=[[0,0.5],[1,0.5]];portConstraint=eastwest;" vertex="1" parent="IEBwx1ruP9Jk8ynMICCt-95">
          <mxGeometry y="30" width="180" height="30" as="geometry" />
        </mxCell>
        <mxCell id="IEBwx1ruP9Jk8ynMICCt-97" value="PK" style="shape=partialRectangle;connectable=0;fillColor=none;top=0;left=0;bottom=0;right=0;fontStyle=1;overflow=hidden;" vertex="1" parent="IEBwx1ruP9Jk8ynMICCt-96">
          <mxGeometry width="60" height="30" as="geometry" />
        </mxCell>
        <mxCell id="IEBwx1ruP9Jk8ynMICCt-98" value="Sequnce" style="shape=partialRectangle;connectable=0;fillColor=none;top=0;left=0;bottom=0;right=0;align=left;spacingLeft=6;fontStyle=5;overflow=hidden;" vertex="1" parent="IEBwx1ruP9Jk8ynMICCt-96">
          <mxGeometry x="60" width="120" height="30" as="geometry" />
        </mxCell>
        <mxCell id="IEBwx1ruP9Jk8ynMICCt-99" value="" style="shape=partialRectangle;collapsible=0;dropTarget=0;pointerEvents=0;fillColor=none;top=0;left=0;bottom=0;right=0;points=[[0,0.5],[1,0.5]];portConstraint=eastwest;" vertex="1" parent="IEBwx1ruP9Jk8ynMICCt-95">
          <mxGeometry y="60" width="180" height="30" as="geometry" />
        </mxCell>
        <mxCell id="IEBwx1ruP9Jk8ynMICCt-100" value="FK" style="shape=partialRectangle;connectable=0;fillColor=none;top=0;left=0;bottom=0;right=0;fontStyle=1;overflow=hidden;" vertex="1" parent="IEBwx1ruP9Jk8ynMICCt-99">
          <mxGeometry width="60" height="30" as="geometry" />
        </mxCell>
        <mxCell id="IEBwx1ruP9Jk8ynMICCt-101" value="catagory" style="shape=partialRectangle;connectable=0;fillColor=none;top=0;left=0;bottom=0;right=0;align=left;spacingLeft=6;fontStyle=5;overflow=hidden;" vertex="1" parent="IEBwx1ruP9Jk8ynMICCt-99">
          <mxGeometry x="60" width="120" height="30" as="geometry" />
        </mxCell>
        <mxCell id="IEBwx1ruP9Jk8ynMICCt-102" value="" style="shape=partialRectangle;collapsible=0;dropTarget=0;pointerEvents=0;fillColor=none;top=0;left=0;bottom=0;right=0;points=[[0,0.5],[1,0.5]];portConstraint=eastwest;" vertex="1" parent="IEBwx1ruP9Jk8ynMICCt-95">
          <mxGeometry y="90" width="180" height="30" as="geometry" />
        </mxCell>
        <mxCell id="IEBwx1ruP9Jk8ynMICCt-103" value="" style="shape=partialRectangle;connectable=0;fillColor=none;top=0;left=0;bottom=0;right=0;editable=1;overflow=hidden;" vertex="1" parent="IEBwx1ruP9Jk8ynMICCt-102">
          <mxGeometry width="60" height="30" as="geometry" />
        </mxCell>
        <mxCell id="IEBwx1ruP9Jk8ynMICCt-104" value="title" style="shape=partialRectangle;connectable=0;fillColor=none;top=0;left=0;bottom=0;right=0;align=left;spacingLeft=6;overflow=hidden;" vertex="1" parent="IEBwx1ruP9Jk8ynMICCt-102">
          <mxGeometry x="60" width="120" height="30" as="geometry" />
        </mxCell>
        <mxCell id="IEBwx1ruP9Jk8ynMICCt-105" value="" style="shape=partialRectangle;collapsible=0;dropTarget=0;pointerEvents=0;fillColor=none;top=0;left=0;bottom=0;right=0;points=[[0,0.5],[1,0.5]];portConstraint=eastwest;" vertex="1" parent="IEBwx1ruP9Jk8ynMICCt-95">
          <mxGeometry y="120" width="180" height="30" as="geometry" />
        </mxCell>
        <mxCell id="IEBwx1ruP9Jk8ynMICCt-106" value="" style="shape=partialRectangle;connectable=0;fillColor=none;top=0;left=0;bottom=0;right=0;editable=1;overflow=hidden;" vertex="1" parent="IEBwx1ruP9Jk8ynMICCt-105">
          <mxGeometry width="60" height="30" as="geometry" />
        </mxCell>
        <mxCell id="IEBwx1ruP9Jk8ynMICCt-107" value="content" style="shape=partialRectangle;connectable=0;fillColor=none;top=0;left=0;bottom=0;right=0;align=left;spacingLeft=6;overflow=hidden;" vertex="1" parent="IEBwx1ruP9Jk8ynMICCt-105">
          <mxGeometry x="60" width="120" height="30" as="geometry" />
        </mxCell>
        <mxCell id="IEBwx1ruP9Jk8ynMICCt-111" value="" style="shape=partialRectangle;collapsible=0;dropTarget=0;pointerEvents=0;fillColor=none;top=0;left=0;bottom=0;right=0;points=[[0,0.5],[1,0.5]];portConstraint=eastwest;" vertex="1" parent="IEBwx1ruP9Jk8ynMICCt-95">
          <mxGeometry y="150" width="180" height="30" as="geometry" />
        </mxCell>
        <mxCell id="IEBwx1ruP9Jk8ynMICCt-112" value="" style="shape=partialRectangle;connectable=0;fillColor=none;top=0;left=0;bottom=0;right=0;editable=1;overflow=hidden;" vertex="1" parent="IEBwx1ruP9Jk8ynMICCt-111">
          <mxGeometry width="60" height="30" as="geometry" />
        </mxCell>
        <mxCell id="IEBwx1ruP9Jk8ynMICCt-113" value="createdtime" style="shape=partialRectangle;connectable=0;fillColor=none;top=0;left=0;bottom=0;right=0;align=left;spacingLeft=6;overflow=hidden;" vertex="1" parent="IEBwx1ruP9Jk8ynMICCt-111">
          <mxGeometry x="60" width="120" height="30" as="geometry" />
        </mxCell>
        <mxCell id="IEBwx1ruP9Jk8ynMICCt-114" value="" style="shape=partialRectangle;collapsible=0;dropTarget=0;pointerEvents=0;fillColor=none;top=0;left=0;bottom=0;right=0;points=[[0,0.5],[1,0.5]];portConstraint=eastwest;" vertex="1" parent="IEBwx1ruP9Jk8ynMICCt-95">
          <mxGeometry y="180" width="180" height="30" as="geometry" />
        </mxCell>
        <mxCell id="IEBwx1ruP9Jk8ynMICCt-115" value="" style="shape=partialRectangle;connectable=0;fillColor=none;top=0;left=0;bottom=0;right=0;editable=1;overflow=hidden;" vertex="1" parent="IEBwx1ruP9Jk8ynMICCt-114">
          <mxGeometry width="60" height="30" as="geometry" />
        </mxCell>
        <mxCell id="IEBwx1ruP9Jk8ynMICCt-116" value="upadetedtime" style="shape=partialRectangle;connectable=0;fillColor=none;top=0;left=0;bottom=0;right=0;align=left;spacingLeft=6;overflow=hidden;" vertex="1" parent="IEBwx1ruP9Jk8ynMICCt-114">
          <mxGeometry x="60" width="120" height="30" as="geometry" />
        </mxCell>
        <mxCell id="IEBwx1ruP9Jk8ynMICCt-268" value="product_catagory" style="shape=table;startSize=30;container=1;collapsible=1;childLayout=tableLayout;fixedRows=1;rowLines=0;fontStyle=1;align=center;resizeLast=1;" vertex="1" parent="1">
          <mxGeometry x="320" y="750" width="180" height="280" as="geometry" />
        </mxCell>
        <mxCell id="IEBwx1ruP9Jk8ynMICCt-269" value="" style="shape=partialRectangle;collapsible=0;dropTarget=0;pointerEvents=0;fillColor=none;top=0;left=0;bottom=0;right=0;points=[[0,0.5],[1,0.5]];portConstraint=eastwest;" vertex="1" parent="IEBwx1ruP9Jk8ynMICCt-268">
          <mxGeometry y="30" width="180" height="30" as="geometry" />
        </mxCell>
        <mxCell id="IEBwx1ruP9Jk8ynMICCt-270" value="PK" style="shape=partialRectangle;connectable=0;fillColor=none;top=0;left=0;bottom=0;right=0;fontStyle=1;overflow=hidden;" vertex="1" parent="IEBwx1ruP9Jk8ynMICCt-269">
          <mxGeometry width="60" height="30" as="geometry" />
        </mxCell>
        <mxCell id="IEBwx1ruP9Jk8ynMICCt-271" value="Sequnce" style="shape=partialRectangle;connectable=0;fillColor=none;top=0;left=0;bottom=0;right=0;align=left;spacingLeft=6;fontStyle=5;overflow=hidden;" vertex="1" parent="IEBwx1ruP9Jk8ynMICCt-269">
          <mxGeometry x="60" width="120" height="30" as="geometry" />
        </mxCell>
        <mxCell id="IEBwx1ruP9Jk8ynMICCt-272" value="" style="shape=partialRectangle;collapsible=0;dropTarget=0;pointerEvents=0;fillColor=none;top=0;left=0;bottom=0;right=0;points=[[0,0.5],[1,0.5]];portConstraint=eastwest;" vertex="1" parent="IEBwx1ruP9Jk8ynMICCt-268">
          <mxGeometry y="60" width="180" height="30" as="geometry" />
        </mxCell>
        <mxCell id="IEBwx1ruP9Jk8ynMICCt-273" value="FK" style="shape=partialRectangle;connectable=0;fillColor=none;top=0;left=0;bottom=0;right=0;fontStyle=1;overflow=hidden;" vertex="1" parent="IEBwx1ruP9Jk8ynMICCt-272">
          <mxGeometry width="60" height="30" as="geometry" />
        </mxCell>
        <mxCell id="IEBwx1ruP9Jk8ynMICCt-274" value="productid" style="shape=partialRectangle;connectable=0;fillColor=none;top=0;left=0;bottom=0;right=0;align=left;spacingLeft=6;fontStyle=5;overflow=hidden;" vertex="1" parent="IEBwx1ruP9Jk8ynMICCt-272">
          <mxGeometry x="60" width="120" height="30" as="geometry" />
        </mxCell>
        <mxCell id="IEBwx1ruP9Jk8ynMICCt-275" value="" style="shape=partialRectangle;collapsible=0;dropTarget=0;pointerEvents=0;fillColor=none;top=0;left=0;bottom=0;right=0;points=[[0,0.5],[1,0.5]];portConstraint=eastwest;" vertex="1" parent="IEBwx1ruP9Jk8ynMICCt-268">
          <mxGeometry y="90" width="180" height="30" as="geometry" />
        </mxCell>
        <mxCell id="IEBwx1ruP9Jk8ynMICCt-276" value="" style="shape=partialRectangle;connectable=0;fillColor=none;top=0;left=0;bottom=0;right=0;editable=1;overflow=hidden;" vertex="1" parent="IEBwx1ruP9Jk8ynMICCt-275">
          <mxGeometry width="60" height="30" as="geometry" />
        </mxCell>
        <mxCell id="IEBwx1ruP9Jk8ynMICCt-277" value="title" style="shape=partialRectangle;connectable=0;fillColor=none;top=0;left=0;bottom=0;right=0;align=left;spacingLeft=6;overflow=hidden;" vertex="1" parent="IEBwx1ruP9Jk8ynMICCt-275">
          <mxGeometry x="60" width="120" height="30" as="geometry" />
        </mxCell>
        <mxCell id="IEBwx1ruP9Jk8ynMICCt-278" value="" style="shape=partialRectangle;collapsible=0;dropTarget=0;pointerEvents=0;fillColor=none;top=0;left=0;bottom=0;right=0;points=[[0,0.5],[1,0.5]];portConstraint=eastwest;" vertex="1" parent="IEBwx1ruP9Jk8ynMICCt-268">
          <mxGeometry y="120" width="180" height="30" as="geometry" />
        </mxCell>
        <mxCell id="IEBwx1ruP9Jk8ynMICCt-279" value="" style="shape=partialRectangle;connectable=0;fillColor=none;top=0;left=0;bottom=0;right=0;editable=1;overflow=hidden;" vertex="1" parent="IEBwx1ruP9Jk8ynMICCt-278">
          <mxGeometry width="60" height="30" as="geometry" />
        </mxCell>
        <mxCell id="IEBwx1ruP9Jk8ynMICCt-280" value="content" style="shape=partialRectangle;connectable=0;fillColor=none;top=0;left=0;bottom=0;right=0;align=left;spacingLeft=6;overflow=hidden;" vertex="1" parent="IEBwx1ruP9Jk8ynMICCt-278">
          <mxGeometry x="60" width="120" height="30" as="geometry" />
        </mxCell>
        <mxCell id="IEBwx1ruP9Jk8ynMICCt-298" value="" style="shape=partialRectangle;collapsible=0;dropTarget=0;pointerEvents=0;fillColor=none;top=0;left=0;bottom=0;right=0;points=[[0,0.5],[1,0.5]];portConstraint=eastwest;" vertex="1" parent="IEBwx1ruP9Jk8ynMICCt-268">
          <mxGeometry y="150" width="180" height="30" as="geometry" />
        </mxCell>
        <mxCell id="IEBwx1ruP9Jk8ynMICCt-299" value="" style="shape=partialRectangle;connectable=0;fillColor=none;top=0;left=0;bottom=0;right=0;editable=1;overflow=hidden;" vertex="1" parent="IEBwx1ruP9Jk8ynMICCt-298">
          <mxGeometry width="60" height="30" as="geometry" />
        </mxCell>
        <mxCell id="IEBwx1ruP9Jk8ynMICCt-300" value="price" style="shape=partialRectangle;connectable=0;fillColor=none;top=0;left=0;bottom=0;right=0;align=left;spacingLeft=6;overflow=hidden;" vertex="1" parent="IEBwx1ruP9Jk8ynMICCt-298">
          <mxGeometry x="60" width="120" height="30" as="geometry" />
        </mxCell>
        <mxCell id="IEBwx1ruP9Jk8ynMICCt-281" value="" style="shape=partialRectangle;collapsible=0;dropTarget=0;pointerEvents=0;fillColor=none;top=0;left=0;bottom=0;right=0;points=[[0,0.5],[1,0.5]];portConstraint=eastwest;" vertex="1" parent="IEBwx1ruP9Jk8ynMICCt-268">
          <mxGeometry y="180" width="180" height="30" as="geometry" />
        </mxCell>
        <mxCell id="IEBwx1ruP9Jk8ynMICCt-282" value="" style="shape=partialRectangle;connectable=0;fillColor=none;top=0;left=0;bottom=0;right=0;editable=1;overflow=hidden;" vertex="1" parent="IEBwx1ruP9Jk8ynMICCt-281">
          <mxGeometry width="60" height="30" as="geometry" />
        </mxCell>
        <mxCell id="IEBwx1ruP9Jk8ynMICCt-283" value="price" style="shape=partialRectangle;connectable=0;fillColor=none;top=0;left=0;bottom=0;right=0;align=left;spacingLeft=6;overflow=hidden;" vertex="1" parent="IEBwx1ruP9Jk8ynMICCt-281">
          <mxGeometry x="60" width="120" height="30" as="geometry" />
        </mxCell>
        <mxCell id="IEBwx1ruP9Jk8ynMICCt-284" value="" style="shape=partialRectangle;collapsible=0;dropTarget=0;pointerEvents=0;fillColor=none;top=0;left=0;bottom=0;right=0;points=[[0,0.5],[1,0.5]];portConstraint=eastwest;" vertex="1" parent="IEBwx1ruP9Jk8ynMICCt-268">
          <mxGeometry y="210" width="180" height="30" as="geometry" />
        </mxCell>
        <mxCell id="IEBwx1ruP9Jk8ynMICCt-285" value="" style="shape=partialRectangle;connectable=0;fillColor=none;top=0;left=0;bottom=0;right=0;editable=1;overflow=hidden;" vertex="1" parent="IEBwx1ruP9Jk8ynMICCt-284">
          <mxGeometry width="60" height="30" as="geometry" />
        </mxCell>
        <mxCell id="IEBwx1ruP9Jk8ynMICCt-286" value="createdtime" style="shape=partialRectangle;connectable=0;fillColor=none;top=0;left=0;bottom=0;right=0;align=left;spacingLeft=6;overflow=hidden;" vertex="1" parent="IEBwx1ruP9Jk8ynMICCt-284">
          <mxGeometry x="60" width="120" height="30" as="geometry" />
        </mxCell>
        <mxCell id="IEBwx1ruP9Jk8ynMICCt-287" value="" style="shape=partialRectangle;collapsible=0;dropTarget=0;pointerEvents=0;fillColor=none;top=0;left=0;bottom=0;right=0;points=[[0,0.5],[1,0.5]];portConstraint=eastwest;" vertex="1" parent="IEBwx1ruP9Jk8ynMICCt-268">
          <mxGeometry y="240" width="180" height="30" as="geometry" />
        </mxCell>
        <mxCell id="IEBwx1ruP9Jk8ynMICCt-288" value="" style="shape=partialRectangle;connectable=0;fillColor=none;top=0;left=0;bottom=0;right=0;editable=1;overflow=hidden;" vertex="1" parent="IEBwx1ruP9Jk8ynMICCt-287">
          <mxGeometry width="60" height="30" as="geometry" />
        </mxCell>
        <mxCell id="IEBwx1ruP9Jk8ynMICCt-289" value="upadetedtime" style="shape=partialRectangle;connectable=0;fillColor=none;top=0;left=0;bottom=0;right=0;align=left;spacingLeft=6;overflow=hidden;" vertex="1" parent="IEBwx1ruP9Jk8ynMICCt-287">
          <mxGeometry x="60" width="120" height="30" as="geometry" />
        </mxCell>
        <mxCell id="IEBwx1ruP9Jk8ynMICCt-294" value="" style="edgeStyle=entityRelationEdgeStyle;fontSize=12;html=1;endArrow=ERmandOne;startArrow=ERmandOne;exitX=1;exitY=0.5;exitDx=0;exitDy=0;entryX=0;entryY=0.5;entryDx=0;entryDy=0;" edge="1" parent="1" source="IEBwx1ruP9Jk8ynMICCt-127" target="IEBwx1ruP9Jk8ynMICCt-295">
          <mxGeometry width="100" height="100" relative="1" as="geometry">
            <mxPoint x="840" y="830" as="sourcePoint" />
            <mxPoint x="940" y="730" as="targetPoint" />
          </mxGeometry>
        </mxCell>
        <mxCell id="IEBwx1ruP9Jk8ynMICCt-326" value="" style="edgeStyle=entityRelationEdgeStyle;fontSize=12;html=1;endArrow=ERzeroToMany;endFill=1;exitX=1;exitY=0.5;exitDx=0;exitDy=0;entryX=0;entryY=0.5;entryDx=0;entryDy=0;" edge="1" parent="1" source="IEBwx1ruP9Jk8ynMICCt-301" target="IEBwx1ruP9Jk8ynMICCt-308">
          <mxGeometry width="100" height="100" relative="1" as="geometry">
            <mxPoint x="1070" y="690" as="sourcePoint" />
            <mxPoint x="1190" y="690" as="targetPoint" />
          </mxGeometry>
        </mxCell>
        <mxCell id="IEBwx1ruP9Jk8ynMICCt-209" value="scm" style="shape=table;startSize=30;container=1;collapsible=1;childLayout=tableLayout;fixedRows=1;rowLines=0;fontStyle=1;align=center;resizeLast=1;" vertex="1" parent="1">
          <mxGeometry x="930" y="480" width="180" height="100" as="geometry" />
        </mxCell>
        <mxCell id="IEBwx1ruP9Jk8ynMICCt-295" value="" style="shape=partialRectangle;collapsible=0;dropTarget=0;pointerEvents=0;fillColor=none;top=0;left=0;bottom=0;right=0;points=[[0,0.5],[1,0.5]];portConstraint=eastwest;" vertex="1" parent="IEBwx1ruP9Jk8ynMICCt-209">
          <mxGeometry y="30" width="180" height="30" as="geometry" />
        </mxCell>
        <mxCell id="IEBwx1ruP9Jk8ynMICCt-296" value="PK" style="shape=partialRectangle;connectable=0;fillColor=none;top=0;left=0;bottom=0;right=0;fontStyle=1;overflow=hidden;" vertex="1" parent="IEBwx1ruP9Jk8ynMICCt-295">
          <mxGeometry width="60" height="30" as="geometry" />
        </mxCell>
        <mxCell id="IEBwx1ruP9Jk8ynMICCt-297" value="accountid" style="shape=partialRectangle;connectable=0;fillColor=none;top=0;left=0;bottom=0;right=0;align=left;spacingLeft=6;fontStyle=5;overflow=hidden;" vertex="1" parent="IEBwx1ruP9Jk8ynMICCt-295">
          <mxGeometry x="60" width="120" height="30" as="geometry" />
        </mxCell>
        <mxCell id="IEBwx1ruP9Jk8ynMICCt-301" value="" style="shape=partialRectangle;collapsible=0;dropTarget=0;pointerEvents=0;fillColor=none;top=0;left=0;bottom=0;right=0;points=[[0,0.5],[1,0.5]];portConstraint=eastwest;" vertex="1" parent="IEBwx1ruP9Jk8ynMICCt-209">
          <mxGeometry y="60" width="180" height="30" as="geometry" />
        </mxCell>
        <mxCell id="IEBwx1ruP9Jk8ynMICCt-302" value="PK" style="shape=partialRectangle;connectable=0;fillColor=none;top=0;left=0;bottom=0;right=0;fontStyle=1;overflow=hidden;" vertex="1" parent="IEBwx1ruP9Jk8ynMICCt-301">
          <mxGeometry width="60" height="30" as="geometry" />
        </mxCell>
        <mxCell id="IEBwx1ruP9Jk8ynMICCt-303" value="account_catagory" style="shape=partialRectangle;connectable=0;fillColor=none;top=0;left=0;bottom=0;right=0;align=left;spacingLeft=6;fontStyle=5;overflow=hidden;" vertex="1" parent="IEBwx1ruP9Jk8ynMICCt-301">
          <mxGeometry x="60" width="120" height="30" as="geometry" />
        </mxCell>
        <mxCell id="IEBwx1ruP9Jk8ynMICCt-304" value="account_catagory" style="shape=table;startSize=30;container=1;collapsible=1;childLayout=tableLayout;fixedRows=1;rowLines=0;fontStyle=1;align=center;resizeLast=1;" vertex="1" parent="1">
          <mxGeometry x="1200" y="480" width="180" height="280" as="geometry" />
        </mxCell>
        <mxCell id="IEBwx1ruP9Jk8ynMICCt-305" value="" style="shape=partialRectangle;collapsible=0;dropTarget=0;pointerEvents=0;fillColor=none;top=0;left=0;bottom=0;right=0;points=[[0,0.5],[1,0.5]];portConstraint=eastwest;" vertex="1" parent="IEBwx1ruP9Jk8ynMICCt-304">
          <mxGeometry y="30" width="180" height="30" as="geometry" />
        </mxCell>
        <mxCell id="IEBwx1ruP9Jk8ynMICCt-306" value="PK" style="shape=partialRectangle;connectable=0;fillColor=none;top=0;left=0;bottom=0;right=0;fontStyle=1;overflow=hidden;" vertex="1" parent="IEBwx1ruP9Jk8ynMICCt-305">
          <mxGeometry width="60" height="30" as="geometry" />
        </mxCell>
        <mxCell id="IEBwx1ruP9Jk8ynMICCt-307" value="Sequnce" style="shape=partialRectangle;connectable=0;fillColor=none;top=0;left=0;bottom=0;right=0;align=left;spacingLeft=6;fontStyle=5;overflow=hidden;" vertex="1" parent="IEBwx1ruP9Jk8ynMICCt-305">
          <mxGeometry x="60" width="120" height="30" as="geometry" />
        </mxCell>
        <mxCell id="IEBwx1ruP9Jk8ynMICCt-308" value="" style="shape=partialRectangle;collapsible=0;dropTarget=0;pointerEvents=0;fillColor=none;top=0;left=0;bottom=0;right=0;points=[[0,0.5],[1,0.5]];portConstraint=eastwest;" vertex="1" parent="IEBwx1ruP9Jk8ynMICCt-304">
          <mxGeometry y="60" width="180" height="30" as="geometry" />
        </mxCell>
        <mxCell id="IEBwx1ruP9Jk8ynMICCt-309" value="FK" style="shape=partialRectangle;connectable=0;fillColor=none;top=0;left=0;bottom=0;right=0;fontStyle=1;overflow=hidden;" vertex="1" parent="IEBwx1ruP9Jk8ynMICCt-308">
          <mxGeometry width="60" height="30" as="geometry" />
        </mxCell>
        <mxCell id="IEBwx1ruP9Jk8ynMICCt-310" value="catagory" style="shape=partialRectangle;connectable=0;fillColor=none;top=0;left=0;bottom=0;right=0;align=left;spacingLeft=6;fontStyle=5;overflow=hidden;" vertex="1" parent="IEBwx1ruP9Jk8ynMICCt-308">
          <mxGeometry x="60" width="120" height="30" as="geometry" />
        </mxCell>
        <mxCell id="IEBwx1ruP9Jk8ynMICCt-311" value="" style="shape=partialRectangle;collapsible=0;dropTarget=0;pointerEvents=0;fillColor=none;top=0;left=0;bottom=0;right=0;points=[[0,0.5],[1,0.5]];portConstraint=eastwest;" vertex="1" parent="IEBwx1ruP9Jk8ynMICCt-304">
          <mxGeometry y="90" width="180" height="30" as="geometry" />
        </mxCell>
        <mxCell id="IEBwx1ruP9Jk8ynMICCt-312" value="" style="shape=partialRectangle;connectable=0;fillColor=none;top=0;left=0;bottom=0;right=0;editable=1;overflow=hidden;" vertex="1" parent="IEBwx1ruP9Jk8ynMICCt-311">
          <mxGeometry width="60" height="30" as="geometry" />
        </mxCell>
        <mxCell id="IEBwx1ruP9Jk8ynMICCt-313" value="title" style="shape=partialRectangle;connectable=0;fillColor=none;top=0;left=0;bottom=0;right=0;align=left;spacingLeft=6;overflow=hidden;" vertex="1" parent="IEBwx1ruP9Jk8ynMICCt-311">
          <mxGeometry x="60" width="120" height="30" as="geometry" />
        </mxCell>
        <mxCell id="IEBwx1ruP9Jk8ynMICCt-314" value="" style="shape=partialRectangle;collapsible=0;dropTarget=0;pointerEvents=0;fillColor=none;top=0;left=0;bottom=0;right=0;points=[[0,0.5],[1,0.5]];portConstraint=eastwest;" vertex="1" parent="IEBwx1ruP9Jk8ynMICCt-304">
          <mxGeometry y="120" width="180" height="30" as="geometry" />
        </mxCell>
        <mxCell id="IEBwx1ruP9Jk8ynMICCt-315" value="" style="shape=partialRectangle;connectable=0;fillColor=none;top=0;left=0;bottom=0;right=0;editable=1;overflow=hidden;" vertex="1" parent="IEBwx1ruP9Jk8ynMICCt-314">
          <mxGeometry width="60" height="30" as="geometry" />
        </mxCell>
        <mxCell id="IEBwx1ruP9Jk8ynMICCt-316" value="content" style="shape=partialRectangle;connectable=0;fillColor=none;top=0;left=0;bottom=0;right=0;align=left;spacingLeft=6;overflow=hidden;" vertex="1" parent="IEBwx1ruP9Jk8ynMICCt-314">
          <mxGeometry x="60" width="120" height="30" as="geometry" />
        </mxCell>
        <mxCell id="IEBwx1ruP9Jk8ynMICCt-317" value="" style="shape=partialRectangle;collapsible=0;dropTarget=0;pointerEvents=0;fillColor=none;top=0;left=0;bottom=0;right=0;points=[[0,0.5],[1,0.5]];portConstraint=eastwest;" vertex="1" parent="IEBwx1ruP9Jk8ynMICCt-304">
          <mxGeometry y="150" width="180" height="30" as="geometry" />
        </mxCell>
        <mxCell id="IEBwx1ruP9Jk8ynMICCt-318" value="" style="shape=partialRectangle;connectable=0;fillColor=none;top=0;left=0;bottom=0;right=0;editable=1;overflow=hidden;" vertex="1" parent="IEBwx1ruP9Jk8ynMICCt-317">
          <mxGeometry width="60" height="30" as="geometry" />
        </mxCell>
        <mxCell id="IEBwx1ruP9Jk8ynMICCt-319" value="grade" style="shape=partialRectangle;connectable=0;fillColor=none;top=0;left=0;bottom=0;right=0;align=left;spacingLeft=6;overflow=hidden;" vertex="1" parent="IEBwx1ruP9Jk8ynMICCt-317">
          <mxGeometry x="60" width="120" height="30" as="geometry" />
        </mxCell>
        <mxCell id="IEBwx1ruP9Jk8ynMICCt-320" value="" style="shape=partialRectangle;collapsible=0;dropTarget=0;pointerEvents=0;fillColor=none;top=0;left=0;bottom=0;right=0;points=[[0,0.5],[1,0.5]];portConstraint=eastwest;" vertex="1" parent="IEBwx1ruP9Jk8ynMICCt-304">
          <mxGeometry y="180" width="180" height="30" as="geometry" />
        </mxCell>
        <mxCell id="IEBwx1ruP9Jk8ynMICCt-321" value="" style="shape=partialRectangle;connectable=0;fillColor=none;top=0;left=0;bottom=0;right=0;editable=1;overflow=hidden;" vertex="1" parent="IEBwx1ruP9Jk8ynMICCt-320">
          <mxGeometry width="60" height="30" as="geometry" />
        </mxCell>
        <mxCell id="IEBwx1ruP9Jk8ynMICCt-322" value="createdtime" style="shape=partialRectangle;connectable=0;fillColor=none;top=0;left=0;bottom=0;right=0;align=left;spacingLeft=6;overflow=hidden;" vertex="1" parent="IEBwx1ruP9Jk8ynMICCt-320">
          <mxGeometry x="60" width="120" height="30" as="geometry" />
        </mxCell>
        <mxCell id="IEBwx1ruP9Jk8ynMICCt-323" value="" style="shape=partialRectangle;collapsible=0;dropTarget=0;pointerEvents=0;fillColor=none;top=0;left=0;bottom=0;right=0;points=[[0,0.5],[1,0.5]];portConstraint=eastwest;" vertex="1" parent="IEBwx1ruP9Jk8ynMICCt-304">
          <mxGeometry y="210" width="180" height="30" as="geometry" />
        </mxCell>
        <mxCell id="IEBwx1ruP9Jk8ynMICCt-324" value="" style="shape=partialRectangle;connectable=0;fillColor=none;top=0;left=0;bottom=0;right=0;editable=1;overflow=hidden;" vertex="1" parent="IEBwx1ruP9Jk8ynMICCt-323">
          <mxGeometry width="60" height="30" as="geometry" />
        </mxCell>
        <mxCell id="IEBwx1ruP9Jk8ynMICCt-325" value="upadetedtime" style="shape=partialRectangle;connectable=0;fillColor=none;top=0;left=0;bottom=0;right=0;align=left;spacingLeft=6;overflow=hidden;" vertex="1" parent="IEBwx1ruP9Jk8ynMICCt-323">
          <mxGeometry x="60" width="120" height="30" as="geometry" />
        </mxCell>
        <mxCell id="IEBwx1ruP9Jk8ynMICCt-327" value="" style="shape=partialRectangle;collapsible=0;dropTarget=0;pointerEvents=0;fillColor=none;top=0;left=0;bottom=0;right=0;points=[[0,0.5],[1,0.5]];portConstraint=eastwest;" vertex="1" parent="IEBwx1ruP9Jk8ynMICCt-304">
          <mxGeometry y="240" width="180" height="30" as="geometry" />
        </mxCell>
        <mxCell id="IEBwx1ruP9Jk8ynMICCt-328" value="" style="shape=partialRectangle;connectable=0;fillColor=none;top=0;left=0;bottom=0;right=0;editable=1;overflow=hidden;" vertex="1" parent="IEBwx1ruP9Jk8ynMICCt-327">
          <mxGeometry width="60" height="30" as="geometry" />
        </mxCell>
        <mxCell id="IEBwx1ruP9Jk8ynMICCt-329" value="description" style="shape=partialRectangle;connectable=0;fillColor=none;top=0;left=0;bottom=0;right=0;align=left;spacingLeft=6;overflow=hidden;" vertex="1" parent="IEBwx1ruP9Jk8ynMICCt-327">
          <mxGeometry x="60" width="120" height="30" as="geometry" />
        </mxCell>
      </root>
    </mxGraphModel>
  </diagram>
</mxfile>
